<svg width="22" height="23" viewBox="0 0 22 23" fill="none" xmlns="http://www.w3.org/2000/svg">
<path d="M9.05666 13.4433L8.91916 13.3333L8.75416 13.2417L8.58916 13.1958C8.44189 13.1664 8.28964 13.1735 8.14578 13.2167C8.00192 13.2598 7.87087 13.3377 7.76416 13.4433C7.67348 13.5264 7.60428 13.6302 7.56249 13.7458C7.514 13.8556 7.48895 13.9742 7.48895 14.0942C7.48895 14.2141 7.514 14.3328 7.56249 14.4425C7.66099 14.6628 7.83722 14.839 8.05749 14.9375C8.1677 14.9845 8.28604 15.0094 8.40583 15.0108C8.52848 15.0086 8.64967 14.9837 8.76333 14.9375C8.87505 14.8932 8.97532 14.8243 9.05666 14.7358C9.1424 14.6522 9.21092 14.5525 9.25833 14.4425C9.30216 14.3317 9.32395 14.2134 9.32249 14.0942C9.32559 13.9739 9.30048 13.8546 9.24916 13.7458C9.20716 13.6325 9.14155 13.5294 9.05666 13.4433ZM3.21749 8.53001C3.33877 8.5295 3.45875 8.50494 3.57047 8.45773C3.68219 8.41053 3.78343 8.34162 3.86833 8.25501L7.75499 4.36834C7.92572 4.19659 8.02155 3.96426 8.02155 3.72209C8.02155 3.47992 7.92572 3.24759 7.75499 3.07584C7.58324 2.90511 7.35091 2.80928 7.10874 2.80928C6.86657 2.80928 6.63424 2.90511 6.46249 3.07584L2.57583 6.96251C2.4051 7.13426 2.30927 7.36659 2.30927 7.60876C2.30927 7.85093 2.4051 8.08326 2.57583 8.25501C2.74507 8.42772 2.9757 8.52656 3.21749 8.53001ZM19.4242 14.745C19.2524 14.5743 19.0201 14.4784 18.7779 14.4784C18.5357 14.4784 18.3034 14.5743 18.1317 14.745L14.245 18.6317C14.1163 18.7593 14.0283 18.9223 13.9922 19.1C13.9561 19.2776 13.9735 19.462 14.0422 19.6298C14.1108 19.7976 14.2277 19.9412 14.3781 20.0426C14.5284 20.1439 14.7054 20.1984 14.8867 20.1992C15.0079 20.1987 15.1279 20.1741 15.2396 20.1269C15.3514 20.0797 15.4526 20.0108 15.5375 19.9242L19.4242 16.0833C19.5157 15.9976 19.5888 15.894 19.6387 15.7789C19.6886 15.6638 19.7143 15.5396 19.7143 15.4142C19.7143 15.2887 19.6886 15.1646 19.6387 15.0495C19.5888 14.9344 19.5157 14.8308 19.4242 14.745ZM19.58 9.55667C19.5818 8.82889 19.295 8.13007 18.7825 7.61334L14.8867 3.71751C14.3621 3.21975 13.6665 2.94226 12.9433 2.94226C12.2202 2.94226 11.5246 3.21975 11 3.71751L3.21749 11.5C2.70251 12.0156 2.41325 12.7146 2.41325 13.4433C2.41325 14.1721 2.70251 14.871 3.21749 15.3867L7.11333 19.2825C7.62895 19.7975 8.32791 20.0868 9.05666 20.0868C9.78541 20.0868 10.4844 19.7975 11 19.2825L18.7825 11.5C19.295 10.9833 19.5818 10.2845 19.58 9.55667ZM17.4808 10.2075L9.70749 17.9808C9.62228 18.0668 9.52089 18.135 9.40919 18.1815C9.29748 18.228 9.17767 18.252 9.05666 18.252C8.93565 18.252 8.81583 18.228 8.70413 18.1815C8.59243 18.135 8.49104 18.0668 8.40583 17.9808L4.51916 14.0942C4.43324 14.009 4.36505 13.9076 4.31851 13.7959C4.27197 13.6842 4.24801 13.5644 4.24801 13.4433C4.24801 13.3223 4.27197 13.2025 4.31851 13.0908C4.36505 12.9791 4.43324 12.8777 4.51916 12.7925L12.2925 5.01917C12.3777 4.93326 12.4791 4.86506 12.5908 4.81852C12.7025 4.77199 12.8223 4.74803 12.9433 4.74803C13.0643 4.74803 13.1842 4.77199 13.2959 4.81852C13.4076 4.86506 13.5089 4.93326 13.5942 5.01917L17.4808 8.90584C17.5667 8.99106 17.6349 9.09244 17.6815 9.20415C17.728 9.31585 17.752 9.43566 17.752 9.55667C17.752 9.67769 17.728 9.7975 17.6815 9.9092C17.6349 10.0209 17.5667 10.1223 17.4808 10.2075Z" fill="#F14C28"/>
</svg>
